External Loads File
version=1
nRows=69
nColumns=13
Range=5.000000e-03-10 seconds
endheader
time 	forceRightX 	forceRightY 	forceRightZ 	pointRightX 	pointRightY 	pointRightZ 	forceLeftX 	forceLeftY 	forceLeftZ 	pointLeftX 	pointLeftY 	pointLeftZ 		
7.505000 90.055458 51.035781 -0.000000 0.237586 0.187381 -0.189388 -64.509212 124.874758 -0.000000 0.439420 0.462892 -0.444122
7.510000 71.263031 9.621360 -0.000000 0.230107 0.194099 -0.189722 -58.081457 160.969256 -0.000000 0.444456 0.455988 -0.444169
7.515000 54.461679 -25.990697 -0.000000 0.223118 0.201345 -0.189608 -52.355437 200.028175 -0.000000 0.449448 0.449036 -0.444522
7.520000 39.878332 -56.131527 -0.000000 0.216510 0.208999 -0.189585 -48.007793 241.199643 -0.000000 0.453502 0.441339 -0.444325
7.525000 27.219420 -81.303135 -0.000000 0.210254 0.217349 -0.189465 -44.805684 283.682362 -0.000000 0.457798 0.432946 -0.444680
7.530000 16.155407 -101.735396 -0.000000 0.203863 0.225994 -0.190197 -43.239255 326.344696 -0.000000 0.461874 0.423947 -0.445270
7.535000 6.643681 -117.611241 -0.000000 0.199520 0.235000 -0.189219 -44.427400 367.888954 -0.000000 0.466097 0.414400 -0.445524
7.540000 -1.906634 -129.068303 -0.000000 0.194610 0.244078 -0.190190 -47.284048 407.231999 -0.000000 0.470148 0.404705 -0.445933
7.545000 -9.290955 -136.073041 -0.000000 0.190706 0.252696 -0.190073 -52.608339 443.155392 -0.000000 0.473838 0.394430 -0.445888
7.550000 -15.761663 -138.652541 -0.000000 0.187646 0.262138 -0.189928 -59.086021 475.063037 -0.000000 0.476995 0.384241 -0.445750
7.555000 -21.055210 -137.139295 -0.000000 0.185272 0.271645 -0.189825 -66.613511 502.823080 -0.000000 0.479728 0.373838 -0.445479
7.560000 -24.996080 -132.240604 -0.000000 0.183330 0.281385 -0.189725 -74.674094 527.033935 -0.000000 0.481906 0.363270 -0.445399
7.565000 -27.284231 -124.963317 -0.000000 0.182186 0.291156 -0.189657 -83.408813 548.721382 -0.000000 0.483708 0.352504 -0.445195
7.570000 -28.051562 -116.319541 -0.000000 0.181400 0.301463 -0.189583 -91.576623 569.347880 -0.000000 0.485045 0.341580 -0.445336
7.575000 -27.270534 -107.289420 -0.000000 0.181065 0.312004 -0.189482 -99.101481 590.200277 -0.000000 0.485826 0.330372 -0.445666
7.580000 -25.102005 -98.639761 -0.000000 0.181667 0.322717 -0.189508 -105.719425 612.403480 -0.000000 0.486000 0.318989 -0.445452
7.585000 -21.819369 -90.850891 -0.000000 0.182726 0.333528 -0.189522 -111.276293 636.752219 -0.000000 0.485745 0.307672 -0.445477
7.590000 -17.752835 -84.121793 -0.000000 0.184543 0.344124 -0.189428 -115.943581 663.637845 -0.000000 0.484752 0.296535 -0.445333
7.595000 -13.411957 -78.424070 -0.000000 0.186717 0.354632 -0.189661 -118.927281 693.324718 -0.000000 0.483135 0.285542 -0.445242
7.600000 -9.287002 -73.653555 -0.000000 0.189610 0.365228 -0.189831 -119.532187 725.852497 -0.000000 0.480754 0.274844 -0.445171
7.605000 -5.732001 -69.718941 -0.000000 0.193002 0.375436 -0.190064 -118.278168 760.920717 -0.000000 0.477697 0.264273 -0.445058
7.610000 -3.168992 -66.554680 -0.000000 0.196963 0.385582 -0.190383 -114.715124 798.234399 -0.000000 0.474065 0.254053 -0.444918
7.615000 -1.946969 -64.124985 -0.000000 0.201707 0.395534 -0.190671 -108.342807 837.278424 -0.000000 0.469900 0.244051 -0.444708
7.620000 -2.283932 -62.379369 -0.000000 0.207031 0.405357 -0.191051 -99.107796 877.274770 -0.000000 0.465126 0.234390 -0.444392
7.625000 -4.265244 -61.244785 -0.000000 0.212727 0.414946 -0.191274 -87.405486 917.263742 -0.000000 0.459740 0.225111 -0.444029
7.630000 -7.904463 -60.627079 -0.000000 0.219052 0.424086 -0.191565 -73.139915 956.241460 -0.000000 0.453791 0.216223 -0.443928
7.635000 -13.077863 -60.412802 -0.000000 0.225931 0.432822 -0.191883 -56.481473 993.120423 -0.000000 0.447397 0.207819 -0.443620
7.640000 -19.637512 -60.469454 -0.000000 0.233197 0.441450 -0.192275 -36.235591 1026.861500 -0.000000 0.440319 0.199801 -0.443403
7.645000 -27.113703 -60.782632 -0.000000 0.240998 0.448943 -0.192619 -15.587508 1056.282989 -0.000000 0.433011 0.192365 -0.443080
7.650000 -35.333693 -61.307529 -0.000000 0.249248 0.456087 -0.192969 7.551400 1080.546117 -0.000000 0.425248 0.185468 -0.442841
7.655000 -43.957311 -62.123399 -0.000000 0.257550 0.462780 -0.193770 31.924240 1098.903853 -0.000000 0.417082 0.178897 -0.442687
7.660000 -53.025789 -63.067888 -0.000000 0.268011 0.468621 -0.192451 61.913830 1110.580220 -0.000000 0.408642 0.173027 -0.442538
7.665000 -61.812011 -64.569437 -0.000000 0.276353 0.475170 -0.193924 87.296015 1115.662812 -0.000000 0.399811 0.167591 -0.442539
7.670000 -70.512858 -66.259550 -0.000000 0.285750 0.480223 -0.194304 113.550143 1113.737555 -0.000000 0.390745 0.162670 -0.442446
7.675000 -78.954574 -67.923934 -0.000000 0.295426 0.484967 -0.194683 139.587526 1104.740667 -0.000000 0.381465 0.158196 -0.442440
7.680000 -86.881250 -69.292125 -0.000000 0.305064 0.489209 -0.195185 163.583176 1088.768956 -0.000000 0.371950 0.154548 -0.442473
7.685000 -94.150121 -69.842612 -0.000000 0.314916 0.492911 -0.195515 186.019856 1065.592183 -0.000000 0.362310 0.151453 -0.442388
7.690000 -100.561279 -69.071856 -0.000000 0.325020 0.495789 -0.195893 206.583559 1034.969608 -0.000000 0.352582 0.148858 -0.442418
7.695000 -105.892004 -66.506248 -0.000000 0.335165 0.498055 -0.195964 225.025237 996.549199 -0.000000 0.342571 0.146875 -0.441969
7.700000 -109.760386 -62.001495 -0.000000 0.345287 0.499414 -0.196179 239.308860 950.372090 -0.000000 0.332830 0.145772 -0.441929
7.705000 -111.907442 -55.452017 -0.000000 0.355171 0.500122 -0.196132 249.138830 896.242979 -0.000000 0.323215 0.145230 -0.441930
7.710000 -112.183423 -46.820533 -0.000000 0.365170 0.500442 -0.196273 254.947936 833.937836 -0.000000 0.313725 0.145277 -0.442055
7.715000 -110.426991 -36.374097 -0.000000 0.374832 0.499748 -0.196263 255.355007 764.122688 -0.000000 0.304373 0.145972 -0.442227
7.720000 -106.653901 -24.285775 -0.000000 0.384129 0.498674 -0.196181 249.884665 687.967815 -0.000000 0.295211 0.147465 -0.442382
7.725000 -101.032499 -10.649313 -0.000000 0.393036 0.497120 -0.196028 238.498659 607.452608 -0.000000 0.286354 0.149571 -0.442578
7.730000 -93.887538 4.698362 -0.000000 0.401692 0.494853 -0.195807 222.397836 524.775835 -0.000000 0.277710 0.152370 -0.442746
7.735000 -85.634210 21.887436 -0.000000 0.409988 0.491943 -0.195134 202.178400 442.648268 -0.000000 0.269358 0.155883 -0.442965
7.740000 -76.827714 41.104437 -0.000000 0.417512 0.488064 -0.194757 178.719705 363.726561 -0.000000 0.261371 0.160088 -0.443224
7.745000 -68.086323 62.692079 -0.000000 0.424563 0.483623 -0.194328 153.622300 290.124347 -0.000000 0.253610 0.164584 -0.443408
7.750000 -59.892610 87.133008 -0.000000 0.430997 0.478221 -0.193842 128.691848 223.317978 -0.000000 0.246194 0.170274 -0.443593
7.755000 -52.600792 114.867183 -0.000000 0.437040 0.471895 -0.193335 105.162551 164.355958 -0.000000 0.239055 0.176345 -0.443667
7.760000 -46.607120 146.242281 -0.000000 0.442485 0.465403 -0.192916 83.976896 113.644207 -0.000000 0.232233 0.182862 -0.443803
7.765000 -41.808341 181.672430 -0.000000 0.447515 0.458321 -0.192524 66.289884 70.548198 -0.000000 0.225543 0.189953 -0.443878
7.770000 -38.031722 221.280717 -0.000000 0.451946 0.449911 -0.192464 52.477241 34.108636 -0.000000 0.219139 0.197553 -0.443952
7.775000 -35.532803 264.655254 -0.000000 0.455970 0.441460 -0.191793 42.344745 3.253789 -0.000000 0.213005 0.205773 -0.444060
7.780000 -33.655183 310.892460 -0.000000 0.459760 0.432118 -0.191381 35.360388 -23.197592 -0.000000 0.207219 0.214550 -0.444189
7.785000 -32.323557 358.432890 -0.000000 0.463591 0.422415 -0.190455 30.603399 -45.927339 -0.000000 0.201995 0.223816 -0.444282
7.790000 -31.469980 405.454986 -0.000000 0.467098 0.412378 -0.190024 27.109513 -65.142727 -0.000000 0.197324 0.233469 -0.444375
7.795000 -31.526190 450.157890 -0.000000 0.470434 0.402332 -0.191030 24.159725 -80.561046 -0.000000 0.193323 0.243149 -0.444511
7.800000 -32.190482 491.143642 -0.000000 0.473408 0.392053 -0.191773 21.243158 -91.685797 -0.000000 0.190018 0.252965 -0.444689
7.805000 -32.769987 527.553045 -0.000000 0.475767 0.380846 -0.191606 18.138944 -98.093035 -0.000000 0.187417 0.262682 -0.444737
7.810000 -35.124537 558.920331 -0.000000 0.477768 0.370072 -0.191693 15.426184 -99.679554 -0.000000 0.185445 0.272259 -0.444939
7.815000 -38.348175 585.456009 -0.000000 0.479503 0.359329 -0.192321 13.327080 -97.024230 -0.000000 0.184057 0.281889 -0.445150
7.820000 -42.108884 607.777016 -0.000000 0.480949 0.348529 -0.192807 12.167255 -91.170000 -0.000000 0.183275 0.291657 -0.445409
7.825000 -45.721481 626.862799 -0.000000 0.481758 0.337551 -0.193028 12.109303 -83.416524 -0.000000 0.183098 0.301728 -0.445758
7.830000 -49.068540 643.781713 -0.000000 0.482295 0.326485 -0.192959 13.248075 -75.017533 -0.000000 0.183469 0.311968 -0.446020
7.835000 -51.785191 659.541288 -0.000000 0.482258 0.315409 -0.193103 15.482485 -66.990998 -0.000000 0.184422 0.322388 -0.446124
7.840000 -53.581919 674.971937 -0.000000 0.481597 0.304507 -0.193386 18.573269 -60.046984 -0.000000 0.185982 0.332980 -0.446157
7.845000 -53.795192 690.739854 -0.000000 0.480299 0.293723 -0.193213 22.102005 -54.615475 -0.000000 0.188068 0.343684 -0.446240
